<svg width="618" height="629" viewBox="0 0 618 629" fill="none" xmlns="http://www.w3.org/2000/svg">
<g opacity="0.7" filter="url(#filter0_f_1_4180)">
<path fill-rule="evenodd" clip-rule="evenodd" d="M286.077 191.717C293.918 191.717 300.288 198.036 300.288 205.814H306.604C306.604 194.576 297.406 185.452 286.077 185.452V191.717Z" fill="#FF914D"/>
<path fill-rule="evenodd" clip-rule="evenodd" d="M550.436 558.894C554.153 560.079 557.04 563.029 558.494 567.036L558.498 567.047L558.498 567.047C559.301 569.284 560.698 570.464 562.08 570.905C563.463 571.346 565.302 571.196 567.287 569.84L571.265 575.567C567.73 577.983 563.651 578.711 559.934 577.526C556.217 576.341 553.335 573.392 551.895 569.386C551.078 567.139 549.672 565.956 548.29 565.515C546.909 565.074 545.08 565.226 543.113 566.58L543.103 566.587L543.103 566.587C539.568 569.002 535.488 569.731 531.771 568.546C528.053 567.36 525.17 564.409 523.73 560.399L530.335 558.066C531.139 560.304 532.536 561.484 533.917 561.924C535.299 562.365 537.138 562.216 539.121 560.862C542.645 558.439 546.719 557.708 550.436 558.894Z" fill="#FFBD59"/>
<path fill-rule="evenodd" clip-rule="evenodd" d="M508.245 107.245C505.778 109.121 504.409 112.1 504.4 115.491L504.4 115.5L504.4 115.5C504.401 117.392 503.671 118.648 502.754 119.345C501.836 120.043 500.416 120.419 498.561 119.929L497.124 125.281C500.427 126.154 503.683 125.617 506.15 123.741C508.618 121.865 509.984 118.889 509.983 115.502C509.989 113.6 510.724 112.339 511.641 111.641C512.559 110.944 513.971 110.572 515.812 111.065L515.821 111.068L515.821 111.068C519.124 111.941 522.38 111.404 524.848 109.528C527.317 107.651 528.683 104.673 528.68 101.283L523.097 101.287C523.098 103.179 522.369 104.435 521.452 105.132C520.534 105.83 519.115 106.206 517.263 105.717C513.966 104.835 510.713 105.37 508.245 107.245Z" fill="#35E6C5"/>
<path d="M547.907 248.475C548.118 251.72 547.285 254.948 545.526 257.693C543.768 260.437 541.176 262.557 538.124 263.746C535.073 264.934 531.72 265.13 528.548 264.306C525.377 263.481 522.552 261.678 520.481 259.157C518.41 256.637 517.199 253.528 517.025 250.281C516.85 247.034 517.72 243.815 519.509 241.09C521.298 238.365 523.914 236.274 526.978 235.119C530.043 233.965 533.399 233.806 536.56 234.666L534.693 241.423C532.975 240.956 531.152 241.042 529.487 241.669C527.821 242.297 526.4 243.433 525.428 244.914C524.456 246.394 523.983 248.143 524.078 249.908C524.173 251.672 524.831 253.361 525.956 254.731C527.081 256.1 528.616 257.08 530.34 257.528C532.063 257.976 533.885 257.87 535.543 257.224C537.201 256.578 538.609 255.426 539.565 253.935C540.52 252.443 540.973 250.69 540.858 248.926L547.907 248.475Z" fill="#FF6264"/>
<path d="M607.201 426.659L600.761 433.047L594.321 426.659L589.522 431.419L595.951 437.807L589.522 444.195L594.321 448.955L600.761 442.567L607.201 448.955L612 444.195L605.56 437.807L612 431.419L607.201 426.659Z" fill="#F5B3A5"/>
<path d="M164.559 373.494C166.57 372.354 169.062 373.797 169.051 376.094L168.953 397.147C168.942 399.452 166.423 400.887 164.423 399.729L146.092 389.118C144.091 387.96 144.112 385.079 146.129 383.936L164.559 373.494Z" fill="#5293FD"/>
<path d="M584.479 12.6972C586.49 11.5576 588.982 13 588.971 15.2978L588.873 36.3506C588.862 38.6552 586.343 40.0909 584.343 38.9328L566.012 28.3217C564.011 27.1636 564.032 24.282 566.049 23.139L584.479 12.6972Z" fill="#5293FD"/>
<path d="M160.847 32.4178L153.616 39.5913L146.384 32.4178L140.995 37.763L148.214 44.9365L140.995 52.11L146.384 57.4553L153.616 50.2817L160.847 57.4553L166.236 52.11L159.004 44.9365L166.236 37.763L160.847 32.4178Z" fill="#F5B3A5"/>
<path d="M227.128 522.939L220.688 529.327L214.248 522.939L209.449 527.699L215.878 534.087L209.449 540.475L214.248 545.235L220.688 538.847L227.128 545.235L231.927 540.475L225.487 534.087L231.927 527.699L227.128 522.939Z" fill="#07BFA5"/>
<path fill-rule="evenodd" clip-rule="evenodd" d="M55.1836 559.445C58.3818 557.224 62.4961 556.724 66.5926 557.997L66.604 558L66.604 558C68.8868 558.717 70.6791 558.326 71.8676 557.501C73.0576 556.674 74.049 555.129 74.1589 552.741L81.163 553.058C80.9673 557.311 79.0875 560.976 75.8894 563.197C72.6915 565.419 68.5813 565.915 64.4929 564.632C62.1951 563.92 60.3945 564.316 59.2053 565.142C58.0168 565.968 57.0332 567.504 56.9321 569.878L56.9316 569.889L56.9316 569.889C56.7359 574.143 54.8562 577.807 51.658 580.029C48.4585 582.251 44.3457 582.747 40.2552 581.462L42.3726 574.832C44.6555 575.549 46.4477 575.158 47.6363 574.332C48.8255 573.506 49.8163 571.963 49.9274 569.577C50.1102 565.328 51.9858 561.666 55.1836 559.445Z" fill="#FFBD59"/>
<path fill-rule="evenodd" clip-rule="evenodd" d="M47.3437 115.324C45.0021 113.295 41.7873 112.553 38.4348 113.215L38.4255 113.216L38.4255 113.216C36.5566 113.592 35.1711 113.131 34.3008 112.377C33.4295 111.622 32.777 110.315 32.8949 108.415L27.3222 108.075C27.1124 111.459 28.2864 114.519 30.628 116.548C32.9695 118.577 36.1812 119.316 39.5282 118.646C41.4086 118.276 42.8003 118.741 43.6709 119.495C44.5412 120.249 45.1881 121.549 45.0646 123.437L45.064 123.446L45.064 123.446C44.8542 126.83 46.0282 129.89 48.3698 131.919C50.7125 133.949 53.9263 134.688 57.2752 134.016L56.1673 128.588C54.2984 128.963 52.9129 128.502 52.0426 127.748C51.1719 126.994 50.5198 125.688 50.6364 123.79C50.8562 120.41 49.6851 117.353 47.3437 115.324Z" fill="#35E6C5"/>
<path d="M37.0556 354.89C37.2668 358.135 36.4331 361.363 34.6748 364.107C32.9165 366.852 30.3245 368.972 27.2729 370.16C24.2213 371.349 20.868 371.545 17.6967 370.72C14.5255 369.896 11.7004 368.093 9.62919 365.572C7.55795 363.051 6.34766 359.943 6.17299 356.696C5.99832 353.448 6.8683 350.23 8.65739 347.505C10.4465 344.78 13.0621 342.689 16.1269 341.534C19.1917 340.38 22.547 340.221 25.7088 341.08L23.8414 347.838C22.1234 347.37 20.3002 347.457 18.635 348.084C16.9697 348.712 15.5485 349.848 14.5764 351.328C13.6042 352.809 13.1315 354.558 13.2264 356.322C13.3214 358.087 13.979 359.776 15.1044 361.145C16.2298 362.515 17.7649 363.495 19.488 363.943C21.2111 364.391 23.0332 364.284 24.6913 363.638C26.3494 362.993 27.7577 361.841 28.7131 360.35C29.6685 358.858 30.1215 357.104 30.0068 355.341L37.0556 354.89Z" fill="#FF6264"/>
<path d="M331.547 32.1826C333.784 29.8054 335.202 26.7847 335.596 23.5562C335.99 20.3278 335.339 17.0587 333.739 14.2207C332.138 11.3826 329.67 9.12247 326.69 7.76631C323.71 6.41016 320.373 6.02816 317.16 6.67546C313.948 7.32275 311.025 8.96585 308.815 11.3676C306.605 13.7694 305.221 16.8057 304.863 20.0383C304.506 23.2709 305.193 26.5326 306.825 29.3527C308.458 32.1728 310.951 34.4055 313.946 35.7286L316.82 29.3281C315.193 28.6092 313.838 27.3961 312.951 25.8637C312.064 24.3314 311.69 22.5591 311.885 20.8027C312.079 19.0462 312.831 17.3964 314.032 16.0914C315.233 14.7864 316.821 13.8936 318.566 13.5419C320.312 13.1901 322.125 13.3977 323.744 14.1346C325.363 14.8715 326.705 16.0995 327.574 17.6416C328.444 19.1837 328.797 20.96 328.583 22.7142C328.369 24.4684 327.599 26.1097 326.383 27.4014L331.547 32.1826Z" fill="#7B61FF"/>
<path d="M316.023 605.423C315.603 608.648 316.228 611.923 317.806 614.773C319.384 617.623 321.834 619.903 324.803 621.282C327.772 622.662 331.106 623.07 334.323 622.447C337.541 621.825 340.477 620.205 342.706 617.821C344.935 615.436 346.343 612.411 346.726 609.181C347.11 605.951 346.448 602.684 344.838 599.852C343.228 597.019 340.753 594.767 337.768 593.42C334.784 592.074 331.446 591.703 328.235 592.36L329.664 599.222C331.408 598.865 333.222 599.066 334.844 599.798C336.465 600.53 337.811 601.753 338.685 603.293C339.56 604.832 339.919 606.607 339.711 608.362C339.503 610.117 338.738 611.761 337.527 613.056C336.315 614.352 334.72 615.232 332.972 615.57C331.224 615.908 329.412 615.687 327.799 614.937C326.186 614.188 324.854 612.949 323.997 611.4C323.139 609.851 322.8 608.072 323.028 606.32L316.023 605.423Z" fill="#7B61FF"/>
<path d="M426.049 442.874C421.151 449.631 413.204 449.631 408.34 442.874C403.442 436.118 395.495 436.118 390.63 442.874C385.732 449.631 377.785 449.631 372.921 442.874" fill="#ECB0CD"/>
<path d="M426.049 454.023C421.151 460.779 413.204 460.779 408.34 454.023C403.442 447.266 395.495 447.266 390.63 454.023C385.732 460.779 377.785 460.779 372.921 454.023" fill="#ECB0CD"/>
<path d="M426.049 465.678C421.151 471.758 413.204 471.758 408.34 465.678C403.442 459.597 395.495 459.597 390.63 465.678C385.732 471.758 377.785 471.758 372.921 465.678" fill="#ECB0CD"/>
</g>
<defs>
<filter id="filter0_f_1_4180" x="0.150879" y="0.368408" width="617.849" height="628.362" filterUnits="userSpaceOnUse" color-interpolation-filters="sRGB">
<feFlood flood-opacity="0" result="BackgroundImageFix"/>
<feBlend mode="normal" in="SourceGraphic" in2="BackgroundImageFix" result="shape"/>
<feGaussianBlur stdDeviation="3" result="effect1_foregroundBlur_1_4180"/>
</filter>
</defs>
</svg>
