<svg width="327" height="256" viewBox="0 0 327 256" fill="none" xmlns="http://www.w3.org/2000/svg">
<path fill-rule="evenodd" clip-rule="evenodd" d="M74.4681 207.102C76.1477 214.587 71.8807 216.78 68.0903 217.557C75.1717 217.762 75.9888 218.782 77.9256 226.328C77.1236 220.678 77.169 216.552 84.6136 213.978C83.1383 214.229 75.8148 217.579 74.4681 207.102Z" stroke="#01221D" stroke-width="1.42" stroke-linecap="round" stroke-linejoin="round"/>
<path fill-rule="evenodd" clip-rule="evenodd" d="M140.909 23.3676C142.589 30.8522 138.322 33.045 134.531 33.8217C141.613 34.0272 142.43 35.0475 144.367 42.5931C143.565 36.9434 143.61 32.8166 151.055 30.2431C149.579 30.5324 142.233 33.8673 140.909 23.3676Z" stroke="#01221D" stroke-width="1.42" stroke-linecap="round" stroke-linejoin="round"/>
<path d="M229.237 207.102C231.454 208.404 232.823 208.991 234.579 210.91" stroke="#01221D" stroke-width="1.42" stroke-linecap="round" stroke-linejoin="round"/>
<path d="M215.619 210.91C216.459 213.354 217.132 214.717 217.193 217.313" stroke="#01221D" stroke-width="1.42" stroke-linecap="round" stroke-linejoin="round"/>
<path d="M123.448 18.2737C125.021 20.3143 126.081 21.3727 126.981 23.8244" stroke="#01221D" stroke-width="1.42" stroke-linecap="round" stroke-linejoin="round"/>
<path d="M200.602 210.91C199.459 213.194 198.627 214.465 198.219 217.054" stroke="#01221D" stroke-width="1.42" stroke-linecap="round" stroke-linejoin="round"/>
<path d="M112.349 114.972L124.618 105.388C126.126 104.21 127.915 103.446 129.809 103.171L185.286 95.1123C186.221 94.9764 186.805 96.0945 186.16 96.785L178.014 105.495" stroke="#01221D" stroke-width="1.42" stroke-linecap="round"/>
<path d="M248.58 27.6967C241.291 29.5474 238.944 23.601 238.611 20.5368C238.563 20.0984 238.279 19.7114 237.857 19.584L226.917 16.2811C226.385 16.1205 225.824 16.4245 225.668 16.958L223.031 25.9825C222.896 26.4457 223.11 26.9394 223.541 27.1563L228.054 29.4274C228.605 29.7045 228.776 30.4093 228.414 30.9082L219.1 43.7362C218.045 45.1879 218.493 47.2342 220.057 48.1137L236.004 57.0827C237.428 57.8835 239.231 57.3978 240.06 55.99L248.185 42.1901C248.453 41.7363 249.026 41.5675 249.497 41.8042L252.957 43.5456C253.391 43.7637 253.918 43.639 254.208 43.2498L258.85 37.022C259.154 36.6136 259.104 36.043 258.735 35.692C256.787 33.8389 254.072 31.121 252.475 29.1448C251.887 28.4174 249.486 27.4665 248.58 27.6967Z" fill="#FFBD59"/>
<path d="M261.908 36.3047L256.732 43.2498C256.442 43.639 255.914 43.7637 255.481 43.5456L252.02 41.8042C251.55 41.5675 250.976 41.7363 250.709 42.1901L242.583 55.99C241.754 57.3978 239.951 57.8835 238.528 57.0827L222.58 48.1137C221.016 47.2342 220.569 45.1879 221.623 43.7362L225.636 38.2092L230.938 30.9082C231.3 30.4093 231.129 29.7045 230.578 29.4274L226.065 27.1563C225.634 26.9394 225.419 26.4457 225.554 25.9825L228.475 15.9895" stroke="#01221D" stroke-width="1.42" stroke-linecap="round"/>
<path d="M52.3741 95.895C57.4366 90.4915 69.8727 84.1396 79.1176 101.96L84.4328 99.27C84.7044 99.1325 85.027 99.1204 85.2851 99.2805C85.9648 99.7021 86.6602 100.419 85.8824 101.093C84.7006 102.117 86.0544 102.284 86.0584 103.987C86.0624 105.689 86.0664 107.392 84.8806 106.714C83.6948 106.036 85.2226 108.245 84.8866 109.268C84.6179 110.086 80.9286 104.737 79.1176 101.96C73.8859 107.308 61.2127 113.581 52.3741 95.895C50.7431 97.7149 47.1422 101.185 45.7872 100.508C44.0935 99.6603 47.6429 98.2898 47.135 98.1207C46.627 97.9516 45.2713 96.9334 46.2831 95.5689C47.2949 94.2044 47.9728 94.7136 46.955 93.5242C46.346 92.8126 46.9607 92.0537 47.6392 91.5492C48.0081 91.275 48.5121 91.382 48.8103 91.7305L52.3741 95.895Z" fill="#FF6264"/>
<path d="M52.3741 95.895C57.4366 90.4915 69.8727 84.1396 79.1176 101.96L84.4328 99.27C84.7044 99.1325 85.027 99.1204 85.2851 99.2805C85.9648 99.7021 86.6602 100.419 85.8824 101.093C84.7006 102.117 86.0544 102.284 86.0584 103.987C86.0624 105.689 86.0664 107.392 84.8806 106.714C83.6948 106.036 85.2226 108.245 84.8866 109.268C84.6179 110.086 80.9286 104.737 79.1176 101.96C73.8859 107.308 61.2127 113.581 52.3741 95.895C50.7431 97.7149 47.1422 101.185 45.7872 100.508C44.0935 99.6603 47.6429 98.2898 47.135 98.1207C46.627 97.9516 45.2713 96.9334 46.2831 95.5689C47.2949 94.2044 47.9728 94.7136 46.955 93.5242C46.346 92.8126 46.9607 92.0537 47.6392 91.5492C48.0081 91.275 48.5121 91.382 48.8103 91.7305L52.3741 95.895Z" fill="#FF6264"/>
<path d="M52.3741 95.895C57.4366 90.4915 69.8727 84.1396 79.1176 101.96M52.3741 95.895C61.2127 113.581 73.8859 107.308 79.1176 101.96M52.3741 95.895L48.8103 91.7305C48.5121 91.382 48.0081 91.275 47.6392 91.5492C46.9607 92.0537 46.346 92.8126 46.955 93.5242C47.9728 94.7136 47.2949 94.2044 46.2831 95.5689C45.2713 96.9334 46.627 97.9516 47.135 98.1207C47.6429 98.2898 44.0935 99.6603 45.7872 100.508C47.1422 101.185 50.7431 97.7149 52.3741 95.895ZM79.1176 101.96L84.4328 99.27C84.7044 99.1325 85.027 99.1204 85.2851 99.2805C85.9648 99.7021 86.6602 100.419 85.8824 101.093C84.7006 102.117 86.0544 102.284 86.0584 103.987C86.0624 105.689 86.0664 107.392 84.8806 106.714C83.6948 106.036 85.2226 108.245 84.8866 109.268C84.6179 110.086 80.9286 104.737 79.1176 101.96Z" stroke="#01221D" stroke-width="1.42" stroke-linecap="round"/>
<circle cx="162" cy="139" r="61" fill="#4CD7AD"/>
<path fill-rule="evenodd" clip-rule="evenodd" d="M192.635 118.757C190.292 116.414 186.493 116.414 184.15 118.757L155.696 147.211L140.243 131.757C137.9 129.414 134.101 129.414 131.757 131.757C129.414 134.1 129.414 137.9 131.757 140.243L150.849 159.335C151.654 160.139 152.63 160.667 153.66 160.919C155.844 161.843 158.463 161.415 160.243 159.635L192.635 127.243C194.979 124.899 194.979 121.1 192.635 118.757Z" fill="white"/>
</svg>
