<svg width="224" height="217" viewBox="0 0 224 217" fill="none" xmlns="http://www.w3.org/2000/svg">
<path d="M112.53 213.803C167.296 213.803 211.692 169.406 211.692 114.64C211.692 59.8745 167.296 15.478 112.53 15.478C57.7642 15.478 13.3677 59.8745 13.3677 114.64C13.3677 169.406 57.7642 213.803 112.53 213.803Z" fill="url(#paint0_linear_4_134)"/>
<path d="M166.027 38.5527H56.1764C49.3293 38.5527 43.7786 44.1035 43.7786 50.9506H178.425C178.425 44.1035 172.875 38.5527 166.027 38.5527Z" fill="url(#paint1_linear_4_134)"/>
<path d="M43.7786 50.6118H178.425V153.161C178.425 157.72 176.614 162.093 173.39 165.317C170.166 168.541 165.793 170.352 161.234 170.352H60.9698C56.4104 170.352 52.0377 168.541 48.8138 165.317C45.5898 162.093 43.7786 157.72 43.7786 153.161V50.6118Z" fill="url(#paint2_linear_4_134)"/>
<path d="M155.28 63.5647H66.9671C65.1279 63.5647 63.637 65.054 63.637 66.8912C63.637 68.7284 65.1279 70.2177 66.9671 70.2177H155.28C157.12 70.2177 158.61 68.7284 158.61 66.8912C158.61 65.054 157.12 63.5647 155.28 63.5647Z" fill="url(#paint3_linear_4_134)"/>
<path d="M155.28 91.8309H66.9671C65.1279 91.8309 63.637 93.3203 63.637 95.1575C63.637 96.9946 65.1279 98.484 66.9671 98.484H155.28C157.12 98.484 158.61 96.9946 158.61 95.1575C158.61 93.3203 157.12 91.8309 155.28 91.8309Z" fill="url(#paint4_linear_4_134)"/>
<path d="M155.28 120.097H66.9671C65.1279 120.097 63.637 121.587 63.637 123.424C63.637 125.261 65.1279 126.75 66.9671 126.75H155.28C157.12 126.75 158.61 125.261 158.61 123.424C158.61 121.587 157.12 120.097 155.28 120.097Z" fill="url(#paint5_linear_4_134)"/>
<path d="M155.28 148.363H66.9671C65.1279 148.363 63.637 149.853 63.637 151.69C63.637 153.527 65.1279 155.016 66.9671 155.016H155.28C157.12 155.016 158.61 153.527 158.61 151.69C158.61 149.853 157.12 148.363 155.28 148.363Z" fill="url(#paint6_linear_4_134)"/>
<g filter="url(#filter0_d_4_134)">
<path d="M66.3691 114.034H19.3436C15.5658 114.034 12.5032 117.097 12.5032 120.875V188.09C12.5032 191.868 15.5658 194.93 19.3436 194.93H66.3691C70.1469 194.93 73.2095 191.868 73.2095 188.09V120.875C73.2095 117.097 70.1469 114.034 66.3691 114.034Z" fill="url(#paint7_linear_4_134)"/>
</g>
<g filter="url(#filter1_d_4_134)">
<path d="M200.235 9.04285H148.294C145.874 9.04285 143.912 11.005 143.912 13.4254V37.8391C143.912 40.2595 145.874 42.2216 148.294 42.2216H200.235C202.656 42.2216 204.618 40.2595 204.618 37.8391V13.4254C204.618 11.005 202.656 9.04285 200.235 9.04285Z" fill="url(#paint8_linear_4_134)"/>
</g>
<path d="M61.1216 147.66H24.5911C23.361 147.66 22.3638 148.657 22.3638 149.887V149.895C22.3638 151.125 23.361 152.122 24.5911 152.122H61.1216C62.3517 152.122 63.3489 151.125 63.3489 149.895V149.887C63.3489 148.657 62.3517 147.66 61.1216 147.66Z" fill="url(#paint9_linear_4_134)"/>
<path d="M61.1422 179.055H24.9257C23.7062 179.055 22.7175 180.021 22.7175 181.213V181.22C22.7175 182.412 23.7062 183.378 24.9257 183.378H61.1422C62.3618 183.378 63.3504 182.412 63.3504 181.22V181.213C63.3504 180.021 62.3618 179.055 61.1422 179.055Z" fill="url(#paint10_linear_4_134)"/>
<path d="M61.1422 162.629H24.9257C23.7062 162.629 22.7175 163.595 22.7175 164.787V164.794C22.7175 165.986 23.7062 166.952 24.9257 166.952H61.1422C62.3618 166.952 63.3504 165.986 63.3504 164.794V164.787C63.3504 163.595 62.3618 162.629 61.1422 162.629Z" fill="url(#paint11_linear_4_134)"/>
<path d="M37.9477 124.414H27.2726C24.9079 124.414 22.991 126.331 22.991 128.696V131.658C22.991 134.023 24.9079 135.94 27.2726 135.94H37.9477C40.3124 135.94 42.2293 134.023 42.2293 131.658V128.696C42.2293 126.331 40.3124 124.414 37.9477 124.414Z" fill="url(#paint12_linear_4_134)"/>
<path d="M156.731 30.6671C159.513 30.6671 161.769 28.4113 161.769 25.6287C161.769 22.846 159.513 20.5902 156.731 20.5902C153.948 20.5902 151.692 22.846 151.692 25.6287C151.692 28.4113 153.948 30.6671 156.731 30.6671Z" fill="#81D5E7"/>
<path d="M174.736 30.6671C177.519 30.6671 179.775 28.4113 179.775 25.6287C179.775 22.846 177.519 20.5902 174.736 20.5902C171.954 20.5902 169.698 22.846 169.698 25.6287C169.698 28.4113 171.954 30.6671 174.736 30.6671Z" fill="#81D5E7"/>
<path d="M192.742 30.6671C195.525 30.6671 197.78 28.4113 197.78 25.6287C197.78 22.846 195.525 20.5902 192.742 20.5902C189.959 20.5902 187.704 22.846 187.704 25.6287C187.704 28.4113 189.959 30.6671 192.742 30.6671Z" fill="#81D5E7"/>
<path d="M179.081 150.84L166.321 164.908L202.289 197.534L215.05 183.465L179.081 150.84Z" fill="url(#paint13_linear_4_134)"/>
<path fill-rule="evenodd" clip-rule="evenodd" d="M192.567 127.555C192.567 156.986 168.708 180.844 139.277 180.844C109.846 180.844 85.988 156.986 85.988 127.555C85.988 98.1244 109.846 74.266 139.277 74.266C168.708 74.266 192.567 98.1244 192.567 127.555ZM184.392 127.555C184.392 152.472 164.194 172.671 139.277 172.671C114.361 172.671 94.1617 152.472 94.1617 127.555C94.1617 102.639 114.361 82.44 139.277 82.44C164.194 82.44 184.392 102.639 184.392 127.555Z" fill="url(#paint14_linear_4_134)"/>
<g filter="url(#filter2_b_4_134)">
<path d="M139.278 172.671C164.194 172.671 184.393 152.472 184.393 127.555C184.393 102.639 164.194 82.4399 139.278 82.4399C114.361 82.4399 94.1624 102.639 94.1624 127.555C94.1624 152.472 114.361 172.671 139.278 172.671Z" fill="url(#paint15_linear_4_134)" fill-opacity="0.2"/>
</g>
<path d="M150.118 127.555L163.021 114.624C164.23 113.345 164.892 111.645 164.867 109.885C164.842 108.125 164.132 106.444 162.887 105.2C161.643 103.955 159.962 103.245 158.202 103.22C156.442 103.195 154.742 103.857 153.463 105.066L140.532 117.997L127.629 105.066C127.008 104.409 126.262 103.883 125.434 103.52C124.607 103.156 123.714 102.962 122.811 102.949C121.907 102.936 121.009 103.105 120.172 103.445C119.334 103.785 118.573 104.29 117.934 104.929C117.295 105.568 116.79 106.329 116.45 107.167C116.11 108.004 115.941 108.902 115.954 109.805C115.967 110.709 116.161 111.602 116.525 112.429C116.888 113.257 117.414 114.003 118.071 114.624L130.995 127.555L118.071 140.487C117.414 141.107 116.888 141.854 116.525 142.681C116.161 143.509 115.967 144.401 115.954 145.305C115.941 146.209 116.11 147.106 116.45 147.944C116.79 148.782 117.295 149.543 117.934 150.182C118.573 150.821 119.334 151.326 120.172 151.666C121.009 152.006 121.907 152.174 122.811 152.161C123.714 152.149 124.607 151.955 125.434 151.591C126.262 151.227 127.008 150.702 127.629 150.044L140.56 137.113L153.492 150.044C154.783 151.182 156.46 151.784 158.18 151.728C159.9 151.673 161.534 150.963 162.749 149.744C163.964 148.526 164.668 146.89 164.719 145.169C164.769 143.449 164.162 141.775 163.021 140.487L150.118 127.555Z" fill="url(#paint16_linear_4_134)"/>
<g filter="url(#filter3_f_4_134)">
<ellipse cx="140.769" cy="152.474" rx="31.7155" ry="4.68525" fill="#EC5575" fill-opacity="0.56"/>
</g>
<path d="M103.839 184.741C104.356 182.597 107.406 182.597 107.923 184.741L109.112 189.665C109.297 190.431 109.895 191.029 110.661 191.214L115.584 192.402C117.729 192.92 117.728 195.97 115.584 196.487L110.661 197.676C109.895 197.86 109.297 198.459 109.112 199.225L107.923 204.148C107.406 206.292 104.356 206.292 103.839 204.148L102.65 199.225C102.465 198.459 101.867 197.86 101.101 197.676L96.1778 196.487C94.0337 195.97 94.0337 192.92 96.1778 192.402L101.101 191.214C101.867 191.029 102.465 190.431 102.65 189.665L103.839 184.741Z" fill="url(#paint17_linear_4_134)"/>
<path d="M32.0829 18.7516C32.6004 16.6076 35.6501 16.6076 36.1676 18.7516L37.3561 23.6748C37.541 24.441 38.1392 25.0392 38.9054 25.2242L43.8286 26.4126C45.9726 26.9302 45.9726 29.9798 43.8286 30.4973L38.9054 31.6858C38.1392 31.8707 37.541 32.469 37.3561 33.2351L36.1676 38.1583C35.6501 40.3024 32.6004 40.3024 32.0829 38.1583L30.8945 33.2351C30.7095 32.469 30.1113 31.8707 29.3451 31.6858L24.4219 30.4973C22.2779 29.9798 22.2779 26.9302 24.4219 26.4126L29.3451 25.2242C30.1113 25.0392 30.7095 24.441 30.8945 23.6748L32.0829 18.7516Z" fill="url(#paint18_linear_4_134)"/>
<path fill-rule="evenodd" clip-rule="evenodd" d="M108.576 18.6161C110.248 18.6161 111.604 17.2607 111.604 15.5888C111.604 13.9168 110.248 12.5614 108.576 12.5614C106.904 12.5614 105.549 13.9168 105.549 15.5888C105.549 17.2607 106.904 18.6161 108.576 18.6161ZM108.576 20.8866C111.502 20.8866 113.874 18.5147 113.874 15.5888C113.874 12.6628 111.502 10.2909 108.576 10.2909C105.65 10.2909 103.279 12.6628 103.279 15.5888C103.279 18.5147 105.65 20.8866 108.576 20.8866Z" fill="url(#paint19_linear_4_134)"/>
<path d="M202.813 102.375C202.48 101.069 203.686 99.8923 204.983 100.257L211.764 102.163C213.062 102.527 213.478 104.16 212.514 105.101L207.473 110.021C206.508 110.962 204.886 110.506 204.553 109.2L202.813 102.375Z" fill="url(#paint20_linear_4_134)"/>
<path d="M24.8245 89.0799C26.131 88.7486 27.3062 89.9558 26.9399 91.2529L25.0256 98.0314C24.6592 99.3285 23.0262 99.7426 22.086 98.7769L17.1728 93.7298C16.2327 92.764 16.6906 91.1426 17.997 90.8113L24.8245 89.0799Z" fill="url(#paint21_linear_4_134)"/>
<path d="M169.201 193.688C170.507 193.357 171.683 194.564 171.316 195.861L169.402 202.64C169.036 203.937 167.403 204.351 166.462 203.385L161.549 198.338C160.609 197.372 161.067 195.751 162.373 195.419L169.201 193.688Z" fill="url(#paint22_linear_4_134)"/>
<path fill-rule="evenodd" clip-rule="evenodd" d="M209.726 62.707C211.398 62.707 212.754 61.3517 212.754 59.6797C212.754 58.0077 211.398 56.6523 209.726 56.6523C208.054 56.6523 206.699 58.0077 206.699 59.6797C206.699 61.3517 208.054 62.707 209.726 62.707ZM209.726 64.9776C212.652 64.9776 215.024 62.6056 215.024 59.6797C215.024 56.7538 212.652 54.3818 209.726 54.3818C206.8 54.3818 204.428 56.7538 204.428 59.6797C204.428 62.6056 206.8 64.9776 209.726 64.9776Z" fill="url(#paint23_linear_4_134)"/>
<path d="M202.286 197.535L215.047 183.467L216.969 185.21C218.834 186.902 219.95 189.265 220.073 191.78C220.195 194.294 219.314 196.755 217.622 198.62C215.931 200.484 213.568 201.601 211.053 201.723C208.538 201.846 206.078 200.965 204.213 199.273L202.291 197.53L202.286 197.535Z" fill="#65C8DE"/>
<defs>
<filter id="filter0_d_4_134" x="0.503174" y="106.034" width="90.7063" height="110.896" filterUnits="userSpaceOnUse" color-interpolation-filters="sRGB">
<feFlood flood-opacity="0" result="BackgroundImageFix"/>
<feColorMatrix in="SourceAlpha" type="matrix" values="0 0 0 0 0 0 0 0 0 0 0 0 0 0 0 0 0 0 127 0" result="hardAlpha"/>
<feOffset dx="3" dy="7"/>
<feGaussianBlur stdDeviation="7.5"/>
<feComposite in2="hardAlpha" operator="out"/>
<feColorMatrix type="matrix" values="0 0 0 0 0.104618 0 0 0 0 0.465612 0 0 0 0 0.545833 0 0 0 0.15 0"/>
<feBlend mode="normal" in2="BackgroundImageFix" result="effect1_dropShadow_4_134"/>
<feBlend mode="normal" in="SourceGraphic" in2="effect1_dropShadow_4_134" result="shape"/>
</filter>
<filter id="filter1_d_4_134" x="136.912" y="0.0428467" width="86.7063" height="59.1787" filterUnits="userSpaceOnUse" color-interpolation-filters="sRGB">
<feFlood flood-opacity="0" result="BackgroundImageFix"/>
<feColorMatrix in="SourceAlpha" type="matrix" values="0 0 0 0 0 0 0 0 0 0 0 0 0 0 0 0 0 0 127 0" result="hardAlpha"/>
<feOffset dx="6" dy="4"/>
<feGaussianBlur stdDeviation="6.5"/>
<feComposite in2="hardAlpha" operator="out"/>
<feColorMatrix type="matrix" values="0 0 0 0 0.104618 0 0 0 0 0.465612 0 0 0 0 0.545833 0 0 0 0.09 0"/>
<feBlend mode="normal" in2="BackgroundImageFix" result="effect1_dropShadow_4_134"/>
<feBlend mode="normal" in="SourceGraphic" in2="effect1_dropShadow_4_134" result="shape"/>
</filter>
<filter id="filter2_b_4_134" x="77.4872" y="65.7648" width="123.581" height="123.581" filterUnits="userSpaceOnUse" color-interpolation-filters="sRGB">
<feFlood flood-opacity="0" result="BackgroundImageFix"/>
<feGaussianBlur in="BackgroundImageFix" stdDeviation="8.33757"/>
<feComposite in2="SourceAlpha" operator="in" result="effect1_backgroundBlur_4_134"/>
<feBlend mode="normal" in="SourceGraphic" in2="effect1_backgroundBlur_4_134" result="shape"/>
</filter>
<filter id="filter3_f_4_134" x="88.21" y="126.944" width="105.119" height="51.0583" filterUnits="userSpaceOnUse" color-interpolation-filters="sRGB">
<feFlood flood-opacity="0" result="BackgroundImageFix"/>
<feBlend mode="normal" in="SourceGraphic" in2="BackgroundImageFix" result="shape"/>
<feGaussianBlur stdDeviation="10.422" result="effect1_foregroundBlur_4_134"/>
</filter>
<linearGradient id="paint0_linear_4_134" x1="111.766" y1="-16.8117" x2="113.797" y2="331.431" gradientUnits="userSpaceOnUse">
<stop stop-color="white" stop-opacity="0"/>
<stop offset="1" stop-color="#8EE2F4"/>
</linearGradient>
<linearGradient id="paint1_linear_4_134" x1="43.6261" y1="41.414" x2="178.493" y2="50.9238" gradientUnits="userSpaceOnUse">
<stop stop-color="#90E3F5"/>
<stop offset="1" stop-color="#65C8DE"/>
</linearGradient>
<linearGradient id="paint2_linear_4_134" x1="39.7357" y1="140.403" x2="234.255" y2="143.861" gradientUnits="userSpaceOnUse">
<stop stop-color="white"/>
<stop offset="1" stop-color="#BCF3FF"/>
</linearGradient>
<linearGradient id="paint3_linear_4_134" x1="59.6201" y1="69.9434" x2="164.228" y2="69.9434" gradientUnits="userSpaceOnUse">
<stop stop-color="#65C8DE"/>
<stop offset="1" stop-color="#D2F7FF"/>
</linearGradient>
<linearGradient id="paint4_linear_4_134" x1="59.6201" y1="98.2096" x2="164.228" y2="98.2096" gradientUnits="userSpaceOnUse">
<stop stop-color="#65C8DE"/>
<stop offset="1" stop-color="#D2F7FF"/>
</linearGradient>
<linearGradient id="paint5_linear_4_134" x1="59.6201" y1="126.476" x2="164.228" y2="126.476" gradientUnits="userSpaceOnUse">
<stop stop-color="#65C8DE"/>
<stop offset="1" stop-color="#D2F7FF"/>
</linearGradient>
<linearGradient id="paint6_linear_4_134" x1="59.6201" y1="154.742" x2="164.228" y2="154.742" gradientUnits="userSpaceOnUse">
<stop stop-color="#65C8DE"/>
<stop offset="1" stop-color="#D2F7FF"/>
</linearGradient>
<linearGradient id="paint7_linear_4_134" x1="10.6804" y1="174.697" x2="127.034" y2="184.253" gradientUnits="userSpaceOnUse">
<stop stop-color="white"/>
<stop offset="1" stop-color="#BCF3FF"/>
</linearGradient>
<linearGradient id="paint8_linear_4_134" x1="142.089" y1="33.9228" x2="229.743" y2="36.4584" gradientUnits="userSpaceOnUse">
<stop stop-color="white"/>
<stop offset="1" stop-color="#BCF3FF"/>
</linearGradient>
<linearGradient id="paint9_linear_4_134" x1="68.1053" y1="152.255" x2="18.8271" y2="152.255" gradientUnits="userSpaceOnUse">
<stop stop-color="#D2F7FF"/>
<stop offset="1" stop-color="#65C8DE"/>
</linearGradient>
<linearGradient id="paint10_linear_4_134" x1="68.0659" y1="183.507" x2="19.2113" y2="183.507" gradientUnits="userSpaceOnUse">
<stop stop-color="#D2F7FF"/>
<stop offset="1" stop-color="#65C8DE"/>
</linearGradient>
<linearGradient id="paint11_linear_4_134" x1="68.0659" y1="167.081" x2="19.2113" y2="167.081" gradientUnits="userSpaceOnUse">
<stop stop-color="#D2F7FF"/>
<stop offset="1" stop-color="#65C8DE"/>
</linearGradient>
<linearGradient id="paint12_linear_4_134" x1="55.5696" y1="135.829" x2="20.5562" y2="135.829" gradientUnits="userSpaceOnUse">
<stop offset="0.243799" stop-color="#D2F7FF"/>
<stop offset="1" stop-color="#6BCBE0"/>
</linearGradient>
<linearGradient id="paint13_linear_4_134" x1="174.607" y1="172.453" x2="187.488" y2="158.325" gradientUnits="userSpaceOnUse">
<stop stop-color="#90E3F5"/>
<stop offset="1" stop-color="#65C8DE"/>
</linearGradient>
<linearGradient id="paint14_linear_4_134" x1="85.8673" y1="98.8628" x2="193.146" y2="99.5593" gradientUnits="userSpaceOnUse">
<stop stop-color="#90E3F5"/>
<stop offset="1" stop-color="#65C8DE"/>
</linearGradient>
<linearGradient id="paint15_linear_4_134" x1="139.278" y1="82.4399" x2="184.739" y2="200.407" gradientUnits="userSpaceOnUse">
<stop stop-color="white"/>
<stop offset="1" stop-color="#D2F7FF"/>
</linearGradient>
<linearGradient id="paint16_linear_4_134" x1="116.187" y1="106.26" x2="165.177" y2="152.029" gradientUnits="userSpaceOnUse">
<stop stop-color="#FF698D"/>
<stop offset="1" stop-color="#FF3868"/>
</linearGradient>
<linearGradient id="paint17_linear_4_134" x1="87.6759" y1="184.665" x2="124.243" y2="184.902" gradientUnits="userSpaceOnUse">
<stop stop-color="#90E3F5"/>
<stop offset="1" stop-color="#65C8DE"/>
</linearGradient>
<linearGradient id="paint18_linear_4_134" x1="15.92" y1="18.6749" x2="52.4869" y2="18.9123" gradientUnits="userSpaceOnUse">
<stop stop-color="#90E3F5"/>
<stop offset="1" stop-color="#65C8DE"/>
</linearGradient>
<linearGradient id="paint19_linear_4_134" x1="103.267" y1="12.7362" x2="113.932" y2="12.8055" gradientUnits="userSpaceOnUse">
<stop stop-color="#90E3F5"/>
<stop offset="1" stop-color="#65C8DE"/>
</linearGradient>
<linearGradient id="paint20_linear_4_134" x1="199.075" y1="107.235" x2="210.048" y2="96.6636" gradientUnits="userSpaceOnUse">
<stop stop-color="#90E3F5"/>
<stop offset="1" stop-color="#65C8DE"/>
</linearGradient>
<linearGradient id="paint21_linear_4_134" x1="19.9698" y1="85.3358" x2="30.5267" y2="96.3223" gradientUnits="userSpaceOnUse">
<stop stop-color="#90E3F5"/>
<stop offset="1" stop-color="#65C8DE"/>
</linearGradient>
<linearGradient id="paint22_linear_4_134" x1="164.346" y1="189.944" x2="174.903" y2="200.93" gradientUnits="userSpaceOnUse">
<stop stop-color="#90E3F5"/>
<stop offset="1" stop-color="#65C8DE"/>
</linearGradient>
<linearGradient id="paint23_linear_4_134" x1="204.416" y1="56.8272" x2="215.082" y2="56.8964" gradientUnits="userSpaceOnUse">
<stop stop-color="#90E3F5"/>
<stop offset="1" stop-color="#65C8DE"/>
</linearGradient>
</defs>
</svg>
