<svg width="337" height="169" viewBox="0 0 337 169" fill="none" xmlns="http://www.w3.org/2000/svg">
<path d="M0.151855 76.651C0.151855 71.8732 4.17276 68 9.13281 68H327.171C332.131 68 336.152 71.8732 336.152 76.651V160.349C336.152 165.127 332.131 169 327.171 169H9.13282C4.17277 169 0.151855 165.127 0.151855 160.349V76.651Z" fill="#29ABE2"/>
<path d="M168.152 77.3855C168.152 74.9635 170.176 73 172.673 73H326.631C329.127 73 331.152 74.9635 331.152 77.3855V159.614C331.152 162.037 329.127 164 326.631 164H172.673C170.176 164 168.152 162.037 168.152 159.614V77.3855Z" fill="white"/>
<path d="M205.61 20.4915C191.378 30.9257 179.084 43.4504 171.12 53.0947C169.366 55.2186 170.087 58.3804 172.541 59.637C174.451 60.6154 176.783 60.0835 178.134 58.4177C185.68 49.1126 197.842 36.5703 211.906 26.259C227.735 14.6539 244.84 6.70877 259.946 7.84799C268.228 8.47253 272.614 11.4495 274.907 17.0137C277.2 22.5779 274.403 27.7652 266.433 33.0384C258.438 38.3285 246.333 42.8509 233.343 46.5307C220.451 50.1828 203.6 54.0853 193.448 55.8817C190.395 56.422 187.638 56.8786 185.275 57.2528C183.045 57.6063 181.56 59.7559 182.044 61.9571C182.485 63.9531 184.399 65.2704 186.421 64.9528C188.984 64.5508 192.034 64.0492 195.442 63.4462C205.798 61.6136 223.048 57.6353 236.429 53.8448C249.711 50.0823 263.072 45.2095 272.366 39.0595C281.686 32.8927 288 24.5951 283.854 14.5373C280.478 6.34293 270.879 0.901016 260.812 0.141742C241.497 -1.31495 221.741 8.66454 205.61 20.4915Z" fill="#29ABE2"/>
<path fill-rule="evenodd" clip-rule="evenodd" d="M258.436 81.0435C257.014 82.4279 254.815 82.6011 253.135 81.5439C230.7 67.4259 201.3 64.5825 186.082 65.0208C184.004 65.0807 182.189 63.5746 181.955 61.5092C181.708 59.3342 183.303 57.387 185.491 57.3198C201.855 56.8172 233.147 59.7104 257.823 74.7824C260.05 76.1432 260.306 79.2227 258.436 81.0435Z" fill="#29ABE2"/>
<path d="M184.451 140.999C183.893 141.008 183.337 140.919 182.802 140.736C182.41 140.633 182.052 140.399 181.776 140.064C181.449 139.63 181.223 139.109 181.119 138.549C180.933 137.589 180.848 136.607 180.866 135.624V106.834C180.866 106.625 180.793 106.424 180.663 106.275C180.533 106.127 180.357 106.044 180.174 106.044H175.389C174.951 106.074 174.517 105.93 174.16 105.637C173.803 105.345 173.545 104.921 173.429 104.436C173.255 103.514 173.17 102.573 173.176 101.63C173.074 100.35 173.299 99.0648 173.821 97.9275C173.991 97.6412 174.219 97.4071 174.487 97.2462C174.754 97.0853 175.052 97.0025 175.355 97.0052H193.155C193.595 96.9703 194.031 97.1118 194.389 97.4053C194.747 97.6988 195.004 98.1257 195.115 98.6126C195.289 99.5303 195.374 100.467 195.369 101.406C195.466 102.685 195.23 103.969 194.689 105.095C194.535 105.388 194.317 105.63 194.056 105.797C193.795 105.963 193.5 106.048 193.202 106.044H188.14C187.957 106.044 187.781 106.127 187.651 106.275C187.522 106.424 187.449 106.625 187.449 106.834V139.247C187.449 139.622 187.382 139.952 187.195 140.236C187.009 140.52 186.738 140.716 186.434 140.789C185.78 140.931 185.116 141.001 184.451 140.999Z" fill="#29ABE2"/>
<path d="M218.934 140.999C218.444 141.013 217.957 140.91 217.503 140.698C217.108 140.493 216.751 140.205 216.45 139.848C216.103 139.409 215.807 138.921 215.569 138.396C215.261 137.745 214.982 137.077 214.733 136.394L210.933 126.44C210.881 126.299 210.793 126.179 210.681 126.095C210.569 126.011 210.438 125.967 210.304 125.969H207.911C207.821 125.969 207.732 125.989 207.649 126.028C207.565 126.068 207.49 126.126 207.426 126.199C207.362 126.272 207.312 126.358 207.277 126.453C207.242 126.548 207.225 126.651 207.225 126.754V139.037C207.245 139.389 207.153 139.738 206.966 140.02C206.779 140.301 206.509 140.495 206.206 140.567C205.561 140.708 204.906 140.778 204.249 140.776C203.691 140.785 203.135 140.697 202.601 140.515C202.211 140.413 201.856 140.181 201.582 139.848C201.291 139.399 201.085 138.887 200.975 138.343C200.794 137.39 200.713 136.415 200.735 135.439V100.67C200.694 100.007 200.821 99.3436 201.101 98.7603C201.393 98.2741 201.787 97.8786 202.246 97.6092C203.331 97.0175 204.489 96.6204 205.68 96.4319C207.076 96.1374 208.494 95.9929 209.914 96.0003C213.84 96.0003 216.782 97.3084 218.785 100.003C220.788 102.698 221.784 106.413 221.784 111.056C221.849 113.631 221.378 116.186 220.41 118.513C219.651 120.349 218.545 121.971 217.171 123.261C217.043 123.373 216.954 123.532 216.918 123.711C216.883 123.891 216.903 124.078 216.977 124.242C218.064 126.649 219.151 128.938 220.204 131.057C220.49 131.62 220.765 132.182 221.017 132.732C221.532 133.83 223.054 137.624 221.131 139.835C220.855 140.191 220.517 140.478 220.139 140.678C219.761 140.879 219.35 140.988 218.934 140.999ZM209.857 104.751C209.475 104.749 209.092 104.84 208.713 104.895C208.43 104.948 208.11 105.026 207.751 105.131C207.604 105.174 207.474 105.272 207.38 105.41C207.287 105.547 207.236 105.716 207.236 105.889V116.943C207.236 117.151 207.309 117.351 207.437 117.498C207.566 117.645 207.741 117.728 207.923 117.728H210.819C211.436 117.754 212.051 117.615 212.613 117.322C213.175 117.029 213.67 116.59 214.058 116.04C214.889 114.641 215.292 112.967 215.202 111.279C215.308 109.568 214.842 107.876 213.898 106.544C213.387 105.915 212.758 105.426 212.058 105.116C211.358 104.806 210.605 104.681 209.857 104.751Z" fill="#29ABE2"/>
<path d="M231.984 140.999C231.465 141.015 230.951 140.882 230.492 140.612C230.033 140.342 229.646 139.944 229.367 139.457C228.6 138.071 228.233 136.458 228.315 134.833V103.17C228.231 101.541 228.598 99.9226 229.367 98.533C229.646 98.0478 230.034 97.6518 230.493 97.3839C230.952 97.116 231.466 96.9854 231.984 97.005H245.522C245.95 96.9717 246.374 97.1064 246.721 97.3857C247.069 97.665 247.317 98.0711 247.422 98.533C247.6 99.4048 247.688 100.296 247.685 101.19C247.797 102.428 247.568 103.675 247.028 104.765C246.874 105.039 246.659 105.264 246.403 105.418C246.148 105.572 245.86 105.649 245.57 105.642H235.616C235.522 105.642 235.429 105.662 235.342 105.702C235.255 105.742 235.176 105.801 235.109 105.875C235.043 105.949 234.99 106.037 234.954 106.134C234.918 106.23 234.899 106.334 234.899 106.439V113.401C234.899 113.613 234.975 113.815 235.109 113.965C235.244 114.114 235.426 114.198 235.616 114.198H244.196C244.622 114.164 245.045 114.297 245.392 114.574C245.739 114.851 245.988 115.254 246.096 115.713C246.283 116.584 246.375 117.476 246.37 118.371C246.48 119.61 246.26 120.857 245.737 121.958C245.587 122.229 245.375 122.451 245.124 122.603C244.872 122.754 244.652 122.822 244.303 122.822H235.616C235.426 122.822 235.244 122.906 235.109 123.055C234.975 123.205 234.899 123.408 234.899 123.619V131.472C234.899 131.683 234.975 131.886 235.109 132.035C235.244 132.185 235.426 132.269 235.616 132.269H245.689C246.116 132.241 246.538 132.378 246.884 132.656C247.231 132.935 247.48 133.338 247.589 133.797C247.766 134.669 247.854 135.56 247.852 136.454C247.947 137.718 247.715 138.986 247.183 140.108C247.031 140.38 246.817 140.603 246.564 140.754C246.31 140.906 246.025 140.981 245.737 140.972L231.984 140.999Z" fill="#29ABE2"/>
<path d="M274.059 140.998C273.504 141.014 272.95 140.93 272.417 140.747C272.06 140.603 271.737 140.364 271.476 140.048C271.198 139.658 270.988 139.21 270.856 138.728C270.695 138.148 270.535 137.409 270.386 136.617L269.571 131.497C269.541 131.316 269.457 131.151 269.333 131.033C269.21 130.915 269.054 130.851 268.893 130.851H260.686C260.526 130.853 260.371 130.919 260.248 131.036C260.124 131.154 260.04 131.317 260.008 131.497C259.767 132.988 259.526 134.532 259.285 136.116C259.136 137.119 258.975 138.108 258.826 139.071C258.784 139.438 258.655 139.783 258.452 140.07C258.25 140.357 257.982 140.573 257.678 140.694C257.195 140.885 256.685 140.975 256.174 140.958C255.107 141.067 254.045 140.693 253.213 139.916C252.581 139.063 252.264 137.96 252.329 136.841C252.33 136.194 252.388 135.549 252.501 134.915C252.627 134.229 252.765 133.397 252.914 132.461C253.121 131.141 253.408 129.465 253.775 127.499L255.038 121.113C255.49 118.79 255.972 116.415 256.484 113.987L257.931 107.152C258.39 104.961 258.792 103.035 259.159 101.359L259.377 100.422C259.523 99.6042 259.831 98.836 260.277 98.1769C260.723 97.5179 261.295 96.9858 261.948 96.6218C262.889 96.2188 263.883 96.0088 264.887 96.0016C266.16 95.9728 267.417 96.3229 268.537 97.0177C269.025 97.2947 269.452 97.695 269.786 98.1886C270.12 98.6822 270.352 99.2564 270.466 99.8679C271.005 102.428 271.614 105.45 272.234 108.841C272.854 112.232 273.496 115.795 274.128 119.397C274.759 122.999 275.39 126.602 275.987 130.165C276.424 132.654 276.806 134.95 277.135 137.053C277.239 137.646 277.48 139.692 276.297 140.299C275.615 140.748 274.845 140.989 274.059 140.998ZM264.876 106.136C264.72 106.134 264.568 106.193 264.445 106.303C264.322 106.413 264.235 106.568 264.198 106.743C263.77 108.828 263.288 111.154 262.752 113.723C262.235 116.27 261.765 118.883 261.34 121.508C261.322 121.622 261.325 121.739 261.351 121.851C261.377 121.963 261.424 122.067 261.489 122.155C261.553 122.245 261.634 122.316 261.725 122.365C261.817 122.413 261.917 122.436 262.017 122.432H267.631C267.733 122.434 267.834 122.41 267.927 122.362C268.02 122.314 268.103 122.244 268.17 122.155C268.234 122.066 268.279 121.962 268.303 121.85C268.327 121.738 268.329 121.621 268.308 121.508C267.883 118.79 267.435 116.151 266.999 113.683C266.563 111.216 266.184 108.801 265.851 106.769C265.819 106.59 265.735 106.429 265.611 106.313C265.488 106.198 265.333 106.135 265.174 106.136H264.876Z" fill="#29ABE2"/>
<path d="M290.342 140.999C289.78 141.008 289.22 140.919 288.682 140.736C288.289 140.633 287.932 140.399 287.656 140.064C287.339 139.624 287.118 139.105 287.01 138.549C286.817 137.59 286.732 136.607 286.757 135.624V106.834C286.757 106.624 286.684 106.423 286.554 106.275C286.424 106.127 286.248 106.043 286.065 106.043H281.246C280.807 106.076 280.372 105.933 280.014 105.64C279.657 105.347 279.399 104.921 279.286 104.436C279.112 103.514 279.027 102.573 279.032 101.629C278.927 100.35 279.151 99.0626 279.678 97.9268C279.844 97.6398 280.07 97.405 280.336 97.2439C280.602 97.0827 280.899 97.0004 281.2 97.0045H299.012C299.451 96.9722 299.886 97.1146 300.243 97.4077C300.601 97.7008 300.858 98.1264 300.972 98.6119C301.146 99.5296 301.231 100.466 301.225 101.405C301.318 102.685 301.082 103.967 300.545 105.095C300.388 105.387 300.168 105.628 299.905 105.794C299.642 105.96 299.347 106.046 299.046 106.043H293.997C293.813 106.043 293.637 106.127 293.508 106.275C293.378 106.423 293.305 106.624 293.305 106.834V139.247C293.325 139.602 293.233 139.954 293.044 140.237C292.856 140.52 292.584 140.716 292.279 140.789C291.64 140.928 290.992 140.999 290.342 140.999Z" fill="#29ABE2"/>
<path d="M314.881 140.999C313.628 141.012 312.378 140.825 311.171 140.443C310.135 140.154 309.148 139.673 308.25 139.019C307.489 138.385 306.853 137.578 306.384 136.65C305.951 135.634 305.735 134.516 305.754 133.388C305.718 132.283 305.947 131.187 306.418 130.217C306.528 129.986 306.694 129.796 306.898 129.67C307.101 129.543 307.332 129.486 307.563 129.505C308.125 129.528 308.667 129.74 309.121 130.113C309.48 130.398 309.861 130.67 310.266 130.929C311.598 131.778 313.101 132.224 314.629 132.223C315.279 132.304 315.937 132.231 316.56 132.008C317.183 131.785 317.758 131.417 318.248 130.929C318.609 130.526 318.896 130.046 319.092 129.517C319.289 128.989 319.391 128.422 319.394 127.848C319.422 127.338 319.351 126.827 319.187 126.351C319.023 125.875 318.769 125.445 318.443 125.091C317.797 124.41 317.059 123.85 316.256 123.434L314.217 122.36C312.923 121.648 311.721 120.923 310.655 120.211C309.67 119.503 308.786 118.631 308.033 117.622C307.276 116.559 306.691 115.354 306.304 114.063C305.873 112.381 305.672 110.635 305.708 108.885C305.556 105.469 306.541 102.112 308.468 99.4746C309.473 98.297 310.691 97.3786 312.039 96.7821C313.387 96.1857 314.833 95.9252 316.279 96.0185C317.434 96.0127 318.586 96.1516 319.714 96.4327C320.65 96.67 321.537 97.1095 322.326 97.7271C323.04 98.2293 323.622 98.9404 324.009 99.7853C324.429 100.686 324.638 101.693 324.616 102.711C324.634 103.727 324.467 104.736 324.124 105.675C324.004 105.918 323.824 106.116 323.607 106.244C323.389 106.373 323.143 106.427 322.898 106.4C322.503 106.389 322.113 106.287 321.753 106.102C321.535 105.986 321.306 105.882 321.066 105.778C319.829 105.196 318.5 104.906 317.16 104.924C315.931 104.817 314.708 105.222 313.725 106.063C313.352 106.405 313.054 106.841 312.856 107.335C312.657 107.829 312.562 108.368 312.579 108.911C312.563 109.774 312.838 110.611 313.347 111.254C313.933 111.862 314.612 112.344 315.351 112.678L317.733 113.907C320.185 115.073 322.333 116.926 323.975 119.292C325.507 122.058 326.262 125.284 326.139 128.545C326.016 131.805 325.022 134.947 323.287 137.556C321.398 139.809 318.581 140.999 314.881 140.999Z" fill="#29ABE2"/>
<path d="M130.694 20.4915C144.925 30.9257 157.22 43.4504 165.183 53.0947C166.938 55.2186 166.217 58.3804 163.763 59.637C161.853 60.6154 159.521 60.0835 158.17 58.4177C150.624 49.1126 138.462 36.5703 124.398 26.259C108.569 14.6539 91.4636 6.70877 76.3575 7.84799C68.0762 8.47253 63.6892 11.4495 61.3962 17.0137C59.1032 22.5779 61.9009 27.7652 69.8706 33.0384C77.8654 38.3285 89.9708 42.8509 102.961 46.5307C115.852 50.1828 132.703 54.0853 142.856 55.8817C145.909 56.422 148.666 56.8786 151.028 57.2528C153.259 57.6063 154.744 59.7559 154.259 61.9571C153.819 63.9531 151.905 65.2704 149.882 64.9528C147.32 64.5508 144.27 64.0492 140.862 63.4462C130.506 61.6136 113.256 57.6353 99.8746 53.8448C86.5931 50.0823 73.2322 45.2095 63.9375 39.0595C54.6178 32.8927 48.3037 24.5951 52.4494 14.5373C55.8261 6.34293 65.4243 0.901016 75.492 0.141742C94.8071 -1.31495 114.562 8.66454 130.694 20.4915Z" fill="#29ABE2"/>
<path fill-rule="evenodd" clip-rule="evenodd" d="M77.8804 81.0435C79.3024 82.4279 81.5004 82.6011 83.1804 81.5439C105.611 67.4259 135.006 64.5825 150.222 65.0208C152.3 65.0807 154.114 63.5746 154.348 61.5092C154.595 59.3342 153.001 57.387 150.813 57.3198C134.452 56.8172 103.165 59.7104 78.4934 74.7824C76.2664 76.1432 76.0104 79.2227 77.8804 81.0435Z" fill="#29ABE2"/>
<path fill-rule="evenodd" clip-rule="evenodd" d="M85.2801 71.0039C82.9692 72.1691 80.6961 73.4264 78.4765 74.7824C76.2495 76.1432 75.9935 79.2227 77.8635 81.0435C79.2855 82.4279 81.4835 82.6011 83.1635 81.5439C90.5256 76.9103 98.6378 73.4911 106.753 71.0039H85.2801Z" fill="white"/>
<path d="M51.3356 131.217V131.419L51.5226 131.495C52.0222 131.698 52.6507 131.845 53.4 131.942L53.4095 131.943L53.4191 131.944C54.1594 131.992 54.867 132.016 55.5419 132.016C56.9379 132.016 58.1135 131.617 59.0448 130.802L59.0473 130.8C60.0334 129.917 60.4994 128.587 60.4994 126.873C60.4994 125.27 60.1249 124.05 59.2989 123.303C58.4867 122.568 57.2817 122.228 55.7422 122.228H51.6356H51.3356V122.528V131.217ZM51.3356 113.839V114.139H51.6356H55.2915C56.773 114.139 57.9107 113.747 58.6243 112.895C59.3563 112.06 59.6981 110.863 59.6981 109.352C59.6981 108.007 59.2933 106.905 58.4596 106.079C57.6482 105.241 56.4383 104.85 54.8908 104.85C54.381 104.85 53.7893 104.874 53.1167 104.922L53.1156 104.922C52.4736 104.97 51.9527 105.043 51.5605 105.144L51.3356 105.202V105.435V113.839ZM48.165 140.046L48.1571 140.044L48.149 140.042C47.3735 139.858 46.6659 139.583 46.0246 139.218L46.0246 139.218L46.0194 139.215C44.2992 138.281 43.4218 136.663 43.4218 134.28V101.019C43.4218 100.051 43.6013 99.3631 43.9181 98.9124L43.6764 98.7425L43.9181 98.9124C44.2881 98.3863 44.7826 97.967 45.409 97.6552L45.4099 97.6548C46.5075 97.1038 47.8926 96.7074 49.5736 96.473L49.5736 96.4731L49.5817 96.4718C51.2674 96.1897 53.0036 96.0485 54.7906 96.0485C59.0194 96.0485 62.2268 97.0586 64.4576 99.0356C66.675 101.001 67.8121 104.062 67.8121 108.284C67.8121 110.379 67.387 112.178 66.5485 113.692C65.7083 115.162 64.5835 116.233 63.1735 116.917L62.5611 117.213L63.1934 117.465C64.7948 118.103 66.1336 119.267 67.2069 120.978L67.2069 120.978L67.2091 120.982C68.3054 122.678 68.8638 124.826 68.8638 127.443C68.8638 132.094 67.6422 135.489 65.2545 137.692C62.8911 139.855 59.4524 140.96 54.8908 140.96C54.3311 140.96 53.6698 140.936 52.9061 140.889C52.1502 140.842 51.36 140.749 50.5353 140.608C49.7456 140.468 48.9556 140.28 48.165 140.046ZM92.4753 139.967L92.4731 139.968C91.7229 140.107 90.9733 140.176 90.2241 140.176C89.4804 140.176 88.8273 140.084 88.2612 139.905L88.2526 139.903L88.2438 139.9C87.7321 139.772 87.2986 139.517 86.9373 139.131C86.5803 138.751 86.2989 138.207 86.1071 137.48C85.916 136.755 85.8165 135.786 85.8165 134.565V98.7483C85.8165 97.8316 86.4365 97.0564 87.3209 96.8987C87.4015 96.8849 87.4809 96.8711 87.5592 96.8575C88.2945 96.73 88.9383 96.6183 89.573 96.6183C90.3173 96.6183 90.9515 96.7105 91.4811 96.8877L91.4939 96.892L91.5071 96.8951C92.054 97.0248 92.5017 97.2811 92.8598 97.6631C93.2168 98.0438 93.4983 98.5876 93.6901 99.3149C93.8812 100.04 93.9806 101.008 93.9806 102.23V138.029C93.9806 138.997 93.3815 139.806 92.4753 139.967ZM124.296 107.083L124.563 106.63H124.038H113.955C112.705 106.63 111.618 105.893 111.359 104.729C111.164 103.85 111.066 102.922 111.066 101.945C111.066 100.111 111.35 98.8614 111.861 98.1322C112.41 97.3966 113.091 97.0456 113.921 97.0456H127.761C129.946 97.0456 131.623 97.6233 132.752 98.7042C133.88 99.783 134.505 101.405 134.505 103.583C134.505 104.736 134.31 105.89 133.92 107.048L133.918 107.052C133.558 108.171 133.082 109.244 132.492 110.27C132.492 110.27 132.492 110.271 132.492 110.271L121.124 129.784L120.861 130.235H121.383H131.967C133.217 130.235 134.304 130.972 134.562 132.137C134.757 133.016 134.855 133.944 134.855 134.921C134.855 136.755 134.555 138.003 134.013 138.73L134.013 138.73L134.009 138.737C133.494 139.469 132.831 139.82 132 139.82H115.336C113.455 139.82 111.692 138.998 111.152 137.322C110.796 136.218 110.615 134.944 110.615 133.496C110.615 132.347 110.826 131.169 111.249 129.964C111.678 128.745 112.188 127.623 112.778 126.596C112.779 126.596 112.779 126.595 112.779 126.595L124.296 107.083Z" fill="white" stroke="#29ABE2" stroke-width="0.6"/>
</svg>
