<svg
    width="16"
    height="16"
    viewBox="0 0 16 16"
    fill="none"
    xmlns="http://www.w3.org/2000/svg"
>
    <path
        d="M8.00005 0C3.58179 0 0 3.59676 0 8.03349C0 12.0127 2.88417 15.3082 6.6658 15.9463V9.7095H4.73595V7.46511H6.6658V5.81019C6.6658 3.89001 7.83371 2.84362 9.53976 2.84362C10.3569 2.84362 11.0591 2.90476 11.2629 2.93169V4.93879L10.0796 4.93937C9.15202 4.93937 8.97318 5.38192 8.97318 6.03156V7.46396H11.1866L10.8979 9.70835H8.97318V16C12.9314 15.5162 16 12.1368 16 8.03119C16 3.59676 12.4182 0 8.00005 0Z"
        fill="#5A7184"
    />
</svg>
