<svg width="28" height="28" viewBox="0 0 28 28" fill="none" xmlns="http://www.w3.org/2000/svg">
<path fill-rule="evenodd" clip-rule="evenodd" d="M3.50482 3.50493C2.33325 4.6765 2.33325 6.56212 2.33325 10.3334V17.6667C2.33325 21.4379 2.33325 23.3235 3.50482 24.4951C4.6764 25.6667 6.56202 25.6667 10.3333 25.6667H17.6666C21.4378 25.6667 23.3234 25.6667 24.495 24.4951C25.6666 23.3235 25.6666 21.4379 25.6666 17.6667V10.3334C25.6666 7.3443 25.6666 5.5398 25.0833 4.33651V19.8334C24.9917 19.8334 24.9459 19.8334 24.9018 19.8324C23.9023 19.8103 22.9472 19.4147 22.2248 18.7235C22.1929 18.693 22.1605 18.6606 22.0958 18.5959L21.2189 17.719C20.1519 16.652 19.6184 16.1185 18.9721 16.0186C18.7696 15.9873 18.5635 15.9873 18.3611 16.0186C17.7148 16.1185 17.1813 16.652 16.1143 17.719L15.9823 17.851L15.9823 17.851L15.9823 17.851C15.1361 18.6971 14.7131 19.1202 14.2465 19.0777C14.1805 19.0717 14.1152 19.0591 14.0516 19.0402C13.6026 18.9063 13.3669 18.3564 12.8956 17.2565L12.8272 17.0971L12.8272 17.0971C11.7728 14.6367 11.2456 13.4065 10.2035 13.2058C9.16146 13.0051 8.21505 13.9516 6.32224 15.8444L4.08325 18.0834V3.05341C3.8718 3.18025 3.6803 3.32945 3.50482 3.50493Z" fill="#BEBEBE"/>
<path d="M3.33325 10.3333C3.33325 8.41943 3.33538 7.08461 3.47078 6.07747C3.60232 5.09911 3.84291 4.58101 4.21193 4.21199C4.58095 3.84298 5.09905 3.60238 6.07741 3.47084C7.08455 3.33544 8.41936 3.33331 10.3333 3.33331H17.6666C19.5805 3.33331 20.9153 3.33544 21.9224 3.47084C22.9008 3.60238 23.4189 3.84298 23.7879 4.21199C24.1569 4.58101 24.3975 5.09911 24.5291 6.07747C24.6645 7.08461 24.6666 8.41943 24.6666 10.3333V17.6666C24.6666 19.5805 24.6645 20.9153 24.5291 21.9225C24.3975 22.9009 24.1569 23.419 23.7879 23.788C23.4189 24.157 22.9008 24.3976 21.9224 24.5291C20.9153 24.6645 19.5805 24.6666 17.6666 24.6666H10.3333C8.41937 24.6666 7.08455 24.6645 6.07741 24.5291C5.09905 24.3976 4.58095 24.157 4.21193 23.788C3.84291 23.419 3.60232 22.9009 3.47078 21.9225C3.33538 20.9154 3.33325 19.5805 3.33325 17.6666V10.3333Z" stroke="#BEBEBE" stroke-width="2"/>
<circle cx="17.5001" cy="10.5" r="2.33333" fill="#BEBEBE"/>
</svg>
